<svg width="31" height="34" viewBox="0 0 31 34" fill="none" xmlns="http://www.w3.org/2000/svg">
<path d="M20.2682 3.8253V11.4919M12.4388 8.68137C12.1609 7.68394 11.9698 6.66084 11.8679 5.62529C11.7665 4.59315 10.9301 3.8253 9.96526 3.8253H5.49416C4.34458 3.8253 3.45849 4.895 3.55989 6.12814C4.57966 18.5542 13.7705 28.4534 25.3103 29.5509C26.4553 29.6601 27.448 28.7094 27.448 27.4713V23.1779C27.448 21.611 26.7356 20.7137 25.7772 20.6045C24.8156 20.4947 23.8656 20.2889 22.9394 19.9897C22.3903 19.8145 21.8074 19.8026 21.2525 19.9553C20.6976 20.108 20.1915 20.4196 19.7877 20.857L17.8741 22.9178C14.4228 20.9042 11.5896 17.8531 9.71984 14.1363L11.6334 12.0755C12.0396 11.6407 12.3289 11.0956 12.4707 10.498C12.6125 9.90046 12.6015 9.27272 12.4388 8.68137ZM22.7314 11.4919V3.8253H24.3331C25.1592 3.8253 25.9515 4.17872 26.5356 4.8078C27.1198 5.43688 27.448 6.2901 27.448 7.17976V8.13748C27.4478 9.02702 27.1195 9.88006 26.5354 10.509C25.9513 11.1379 25.1591 11.4912 24.3331 11.4912L22.7314 11.4919Z" stroke="black" stroke-width="1.18535" stroke-linecap="round" stroke-linejoin="round"/>
</svg>
