<svg width="197" height="96" viewBox="0 0 197 96" fill="none" xmlns="http://www.w3.org/2000/svg">
<path d="M171.873 95.9847C171.873 79.7244 164.143 64.1301 150.383 52.6323C136.624 41.1345 117.962 34.6751 98.5026 34.6751C79.0435 34.6751 60.3814 41.1345 46.6218 52.6323C32.8621 64.1301 25.132 79.7244 25.132 95.9847L98.5026 95.9847H171.873Z" fill="#D5E1FF"/>
<line x1="0.00258904" y1="95.4822" x2="196.997" y2="94.4771" stroke="black"/>
<rect x="73.3706" y="22.6091" width="41.2183" height="65.3401" rx="9" fill="white" stroke="black" stroke-width="2"/>
<line x1="87.4467" y1="74.8781" x2="100.513" y2="74.8781" stroke="black" stroke-width="2"/>
<path d="M96.4924 6.53299C96.4924 3.75755 98.7424 1.50761 101.518 1.50761H135.69C138.466 1.50761 140.716 3.75755 140.716 6.53299V31.8035C140.716 34.5789 138.466 36.8288 135.69 36.8288H126.307C124.919 36.8288 123.593 37.4026 122.643 38.4142L122.268 38.8144C120.283 40.9282 116.926 40.9282 114.941 38.8144L114.565 38.4142C113.615 37.4026 112.289 36.8288 110.901 36.8288H101.518C98.7424 36.8288 96.4924 34.5789 96.4924 31.8035V6.53299Z" fill="#5A81E8" stroke="black" stroke-opacity="0.8" stroke-width="3" stroke-linecap="round" stroke-linejoin="round"/>
<path d="M117.499 19.1682H119.712" stroke="white" stroke-width="3" stroke-linecap="round"/>
<path d="M128.555 19.1682H130.765" stroke="white" stroke-width="3" stroke-linecap="round"/>
<path d="M106.444 19.1682H108.654" stroke="white" stroke-width="3" stroke-linecap="round"/>
</svg>
